<svg width="202" height="46" viewBox="0 0 202 46" fill="none" xmlns="http://www.w3.org/2000/svg">
<g filter="url(#filter0_d_37_1214)">
<rect x="2" y="1" width="198" height="42" rx="6" fill="white"/>
<path d="M60.35 16V9.08H62.82C64.83 9.08 65.38 10.48 65.38 12.44C65.38 14.43 64.86 16 62.82 16H60.35ZM61.12 15.31H62.82C64.26 15.31 64.58 13.94 64.58 12.44C64.58 10.94 64.26 9.77 62.82 9.77H61.12V15.31ZM68.5853 16.1C66.9053 16.1 66.4453 15.26 66.4453 13.44C66.4453 11.72 67.0053 10.9 68.5853 10.9C70.1753 10.9 70.7253 11.72 70.7253 13.44C70.7253 15.26 70.2753 16.1 68.5853 16.1ZM68.5853 15.45C69.7653 15.45 69.9553 14.86 69.9553 13.44C69.9553 12.05 69.6453 11.55 68.5853 11.55C67.5253 11.55 67.2153 12.05 67.2153 13.44C67.2153 14.86 67.4053 15.45 68.5853 15.45ZM72.6797 16L71.4897 11H72.2497L73.2497 15.35H73.4097L74.5997 11.1H75.3797L76.5697 15.35H76.7397L77.7397 11H78.4897L77.2997 16H76.0497L74.9897 12.09L73.9297 16H72.6797ZM79.5169 16V11H80.2669V11.35C80.6069 11.16 81.2669 10.9 81.8169 10.9C83.1869 10.9 83.4969 11.58 83.4969 13.36V16H82.7469V13.38C82.7469 12.06 82.6069 11.57 81.6769 11.57C81.1569 11.57 80.5669 11.78 80.2669 11.94V16H79.5169ZM84.9577 16V8.82H85.7077V16H84.9577ZM89.1322 16.1C87.4522 16.1 86.9922 15.26 86.9922 13.44C86.9922 11.72 87.5522 10.9 89.1322 10.9C90.7222 10.9 91.2722 11.72 91.2722 13.44C91.2722 15.26 90.8222 16.1 89.1322 16.1ZM89.1322 15.45C90.3122 15.45 90.5022 14.86 90.5022 13.44C90.5022 12.05 90.1922 11.55 89.1322 11.55C88.0722 11.55 87.7622 12.05 87.7622 13.44C87.7622 14.86 87.9522 15.45 89.1322 15.45ZM93.5854 16.1C92.6754 16.1 92.1754 15.58 92.1754 14.57C92.1754 13.61 92.6754 13.18 93.7054 13.09L95.2754 12.94V12.51C95.2754 11.81 94.9654 11.56 94.3754 11.56C93.8654 11.56 92.9954 11.64 92.4854 11.69L92.4554 11.12C92.9254 11.03 93.7854 10.9 94.4154 10.9C95.5454 10.9 96.0254 11.42 96.0254 12.51V15.06C96.0454 15.36 96.2854 15.47 96.6054 15.5L96.5754 16.1C96.2854 16.1 96.0554 16.07 95.8454 15.99C95.6754 15.93 95.5154 15.84 95.3854 15.7C94.9954 15.87 94.2454 16.1 93.5854 16.1ZM93.7054 15.47C94.2454 15.47 94.9154 15.3 95.2754 15.16V13.51L93.7954 13.65C93.1854 13.71 92.9454 14 92.9454 14.55C92.9454 15.13 93.1954 15.47 93.7054 15.47ZM99.0852 16.1C98.1052 16.1 97.2852 15.7 97.2852 13.54C97.2852 11.78 97.8552 10.9 99.3752 10.9C99.7652 10.9 100.325 10.98 100.605 11.03V8.82H101.355V16H100.605V15.66C100.275 15.85 99.6252 16.1 99.0852 16.1ZM99.1752 15.43C99.6952 15.43 100.295 15.21 100.605 15.06V11.67C100.345 11.63 99.7752 11.56 99.4152 11.56C98.3752 11.56 98.0552 12.24 98.0552 13.54C98.0552 15.16 98.5852 15.43 99.1752 15.43ZM106.915 16.1C105.235 16.1 104.775 15.26 104.775 13.44C104.775 11.72 105.335 10.9 106.915 10.9C108.505 10.9 109.055 11.72 109.055 13.44C109.055 15.26 108.605 16.1 106.915 16.1ZM106.915 15.45C108.095 15.45 108.285 14.86 108.285 13.44C108.285 12.05 107.975 11.55 106.915 11.55C105.855 11.55 105.545 12.05 105.545 13.44C105.545 14.86 105.735 15.45 106.915 15.45ZM110.279 16V11H111.029V11.35C111.369 11.16 112.029 10.9 112.579 10.9C113.949 10.9 114.259 11.58 114.259 13.36V16H113.509V13.38C113.509 12.06 113.369 11.57 112.439 11.57C111.919 11.57 111.329 11.78 111.029 11.94V16H110.279Z" fill="black"/>
<path d="M59.78 33L62.37 23.354H65.044L67.634 33H66.276L65.646 30.69H61.754L61.124 33H59.78ZM62.02 29.542H65.394L64.05 24.474H63.364L62.02 29.542ZM68.8462 36.052V25.986H70.1482V26.476C70.2882 26.392 70.4702 26.3033 70.6942 26.21C70.9182 26.1073 71.1562 26.0233 71.4082 25.958C71.6602 25.8833 71.9029 25.846 72.1362 25.846C73.0415 25.846 73.6995 26.1353 74.1102 26.714C74.5209 27.2833 74.7262 28.1887 74.7262 29.43C74.7262 30.3353 74.6189 31.0633 74.4042 31.614C74.1989 32.1553 73.8675 32.5473 73.4102 32.79C72.9622 33.0233 72.3789 33.14 71.6602 33.14C71.3802 33.14 71.0955 33.1213 70.8062 33.084C70.5262 33.0467 70.3069 33.014 70.1482 32.986V36.052H68.8462ZM71.5342 32.02C72.0009 32.02 72.3695 31.9313 72.6402 31.754C72.9202 31.5767 73.1162 31.2967 73.2282 30.914C73.3402 30.5313 73.3962 30.032 73.3962 29.416C73.3962 28.52 73.2655 27.8947 73.0042 27.54C72.7429 27.176 72.3742 26.994 71.8982 26.994C71.6929 26.994 71.4782 27.022 71.2542 27.078C71.0395 27.1247 70.8342 27.1853 70.6382 27.26C70.4422 27.3253 70.2789 27.4 70.1482 27.484V31.894C70.2882 31.9127 70.4889 31.9407 70.7502 31.978C71.0209 32.006 71.2822 32.02 71.5342 32.02ZM76.2974 36.052V25.986H77.5994V26.476C77.7394 26.392 77.9214 26.3033 78.1454 26.21C78.3694 26.1073 78.6074 26.0233 78.8594 25.958C79.1114 25.8833 79.354 25.846 79.5874 25.846C80.4927 25.846 81.1507 26.1353 81.5614 26.714C81.972 27.2833 82.1774 28.1887 82.1774 29.43C82.1774 30.3353 82.07 31.0633 81.8554 31.614C81.65 32.1553 81.3187 32.5473 80.8614 32.79C80.4134 33.0233 79.83 33.14 79.1114 33.14C78.8314 33.14 78.5467 33.1213 78.2574 33.084C77.9774 33.0467 77.758 33.014 77.5994 32.986V36.052H76.2974ZM78.9854 32.02C79.452 32.02 79.8207 31.9313 80.0914 31.754C80.3714 31.5767 80.5674 31.2967 80.6794 30.914C80.7914 30.5313 80.8474 30.032 80.8474 29.416C80.8474 28.52 80.7167 27.8947 80.4554 27.54C80.194 27.176 79.8254 26.994 79.3494 26.994C79.144 26.994 78.9294 27.022 78.7054 27.078C78.4907 27.1247 78.2854 27.1853 78.0894 27.26C77.8934 27.3253 77.73 27.4 77.5994 27.484V31.894C77.7394 31.9127 77.94 31.9407 78.2014 31.978C78.472 32.006 78.7334 32.02 78.9854 32.02ZM89.737 33.14C89.4384 33.14 89.093 33.1213 88.701 33.084C88.3184 33.0467 87.9404 33 87.567 32.944C87.1937 32.888 86.867 32.8413 86.587 32.804L86.699 31.712C86.9697 31.74 87.287 31.7773 87.651 31.824C88.0244 31.8613 88.3884 31.894 88.743 31.922C89.0977 31.95 89.401 31.964 89.653 31.964C90.297 31.964 90.773 31.824 91.081 31.544C91.3984 31.264 91.557 30.8253 91.557 30.228C91.557 29.9013 91.4917 29.6447 91.361 29.458C91.2397 29.262 91.0297 29.108 90.731 28.996C90.4324 28.8747 90.031 28.7673 89.527 28.674C88.8364 28.534 88.267 28.366 87.819 28.17C87.371 27.974 87.0397 27.6987 86.825 27.344C86.6104 26.98 86.503 26.49 86.503 25.874C86.503 25.2207 86.629 24.698 86.881 24.306C87.1424 23.914 87.511 23.6293 87.987 23.452C88.4724 23.2747 89.037 23.186 89.681 23.186C89.9704 23.186 90.297 23.2047 90.661 23.242C91.0344 23.27 91.3984 23.3073 91.753 23.354C92.117 23.4007 92.4297 23.4473 92.691 23.494L92.593 24.6C92.3224 24.5627 92.005 24.53 91.641 24.502C91.2864 24.4647 90.941 24.432 90.605 24.404C90.269 24.376 89.9984 24.362 89.793 24.362C89.149 24.362 88.6637 24.4787 88.337 24.712C88.0197 24.936 87.861 25.2907 87.861 25.776C87.861 26.1493 87.931 26.434 88.071 26.63C88.211 26.826 88.4444 26.98 88.771 27.092C89.0977 27.204 89.527 27.3253 90.059 27.456C90.563 27.568 90.9924 27.6893 91.347 27.82C91.711 27.9507 92.0097 28.114 92.243 28.31C92.4764 28.506 92.6444 28.7487 92.747 29.038C92.859 29.3273 92.915 29.6913 92.915 30.13C92.915 30.8487 92.7844 31.4273 92.523 31.866C92.271 32.3047 91.907 32.6267 91.431 32.832C90.955 33.0373 90.3904 33.14 89.737 33.14ZM96.8056 33.154C96.311 33.154 95.9143 33.0793 95.6156 32.93C95.3263 32.7807 95.1163 32.524 94.9856 32.16C94.8643 31.7867 94.8036 31.264 94.8036 30.592V27.092H93.8516V25.986H94.8036V23.928H96.0916V25.986H98.1776V27.092H96.0916V30.228C96.0916 30.6853 96.1103 31.0447 96.1476 31.306C96.1943 31.558 96.283 31.7353 96.4136 31.838C96.5443 31.9407 96.7496 31.992 97.0296 31.992C97.123 31.992 97.2396 31.992 97.3796 31.992C97.5196 31.9827 97.6643 31.9733 97.8136 31.964C97.963 31.9453 98.0936 31.9313 98.2056 31.922L98.2756 32.986C98.061 33.0233 97.809 33.0607 97.5196 33.098C97.2303 33.1353 96.9923 33.154 96.8056 33.154ZM102.175 33.14C101.391 33.14 100.775 33.0093 100.327 32.748C99.8792 32.4773 99.5618 32.0667 99.3752 31.516C99.1885 30.9653 99.0952 30.2653 99.0952 29.416C99.0952 28.604 99.1932 27.9367 99.3892 27.414C99.5945 26.8913 99.9212 26.4993 100.369 26.238C100.827 25.9767 101.429 25.846 102.175 25.846C102.931 25.846 103.533 25.9767 103.981 26.238C104.429 26.4993 104.751 26.8913 104.947 27.414C105.153 27.9367 105.255 28.604 105.255 29.416C105.255 30.2653 105.162 30.9653 104.975 31.516C104.798 32.0667 104.485 32.4773 104.037 32.748C103.589 33.0093 102.969 33.14 102.175 33.14ZM102.175 32.034C102.67 32.034 103.043 31.9453 103.295 31.768C103.547 31.5907 103.715 31.3107 103.799 30.928C103.883 30.536 103.925 30.032 103.925 29.416C103.925 28.8093 103.874 28.3287 103.771 27.974C103.669 27.61 103.491 27.3487 103.239 27.19C102.987 27.0313 102.633 26.952 102.175 26.952C101.727 26.952 101.373 27.0313 101.111 27.19C100.859 27.3487 100.682 27.61 100.579 27.974C100.477 28.3287 100.425 28.8093 100.425 29.416C100.425 30.032 100.467 30.536 100.551 30.928C100.635 31.3107 100.799 31.5907 101.041 31.768C101.293 31.9453 101.671 32.034 102.175 32.034ZM106.854 33V25.986H108.156V26.896C108.324 26.7747 108.539 26.644 108.8 26.504C109.061 26.364 109.346 26.2333 109.654 26.112C109.971 25.9813 110.284 25.888 110.592 25.832V27.134C110.293 27.19 109.985 27.2693 109.668 27.372C109.36 27.4747 109.071 27.5867 108.8 27.708C108.539 27.82 108.324 27.9227 108.156 28.016V33H106.854ZM114.311 33.14C113.592 33.14 113.023 33.0093 112.603 32.748C112.192 32.4773 111.894 32.076 111.707 31.544C111.52 31.012 111.427 30.3447 111.427 29.542C111.427 28.6647 111.548 27.9553 111.791 27.414C112.043 26.8727 112.393 26.476 112.841 26.224C113.289 25.972 113.826 25.846 114.451 25.846C115.412 25.846 116.136 26.1073 116.621 26.63C117.116 27.1433 117.363 27.974 117.363 29.122L117.293 30.004H112.757C112.766 30.676 112.892 31.1847 113.135 31.53C113.378 31.866 113.816 32.034 114.451 32.034C114.722 32.034 115.016 32.0293 115.333 32.02C115.66 32.0013 115.982 31.9827 116.299 31.964C116.616 31.9453 116.887 31.9267 117.111 31.908L117.139 32.888C116.906 32.9253 116.626 32.9627 116.299 33C115.972 33.0467 115.632 33.0793 115.277 33.098C114.932 33.126 114.61 33.14 114.311 33.14ZM112.757 29.038H116.061C116.061 28.2447 115.93 27.6893 115.669 27.372C115.417 27.0547 115.011 26.896 114.451 26.896C113.9 26.896 113.48 27.0593 113.191 27.386C112.902 27.7127 112.757 28.2633 112.757 29.038Z" fill="black"/>
<path d="M139.864 22.5088C139.841 20.4874 141.898 19.504 141.992 19.4582C140.827 18.0766 139.022 17.8878 138.387 17.8728C136.871 17.7429 135.4 18.6109 134.628 18.6109C133.84 18.6109 132.651 17.8853 131.369 17.9066C129.719 17.9273 128.176 18.7044 127.33 19.911C125.583 22.3714 126.886 25.987 128.559 27.9758C129.396 28.9504 130.374 30.0373 131.655 29.999C132.907 29.9576 133.375 29.3499 134.887 29.3499C136.385 29.3499 136.824 29.999 138.13 29.9746C139.474 29.9576 140.321 28.9962 141.129 28.0134C142.096 26.8977 142.485 25.7976 142.5 25.7412C142.469 25.7324 139.89 24.9309 139.864 22.5088ZM137.397 16.5645C138.071 15.879 138.532 14.9464 138.404 14C137.429 14.0351 136.209 14.5488 135.507 15.2192C134.885 15.81 134.33 16.7783 134.474 17.689C135.569 17.7555 136.694 17.2393 137.397 16.5645Z" fill="black"/>
<rect x="2.5" y="1.5" width="197" height="41" rx="5.5" stroke="#E5E7EB"/>
</g>
<defs>
<filter id="filter0_d_37_1214" x="0" y="0" width="202" height="46" filterUnits="userSpaceOnUse" color-interpolation-filters="sRGB">
<feFlood flood-opacity="0" result="BackgroundImageFix"/>
<feColorMatrix in="SourceAlpha" type="matrix" values="0 0 0 0 0 0 0 0 0 0 0 0 0 0 0 0 0 0 127 0" result="hardAlpha"/>
<feOffset dy="1"/>
<feGaussianBlur stdDeviation="1"/>
<feColorMatrix type="matrix" values="0 0 0 0 0 0 0 0 0 0 0 0 0 0 0 0 0 0 0.05 0"/>
<feBlend mode="normal" in2="BackgroundImageFix" result="effect1_dropShadow_37_1214"/>
<feBlend mode="normal" in="SourceGraphic" in2="effect1_dropShadow_37_1214" result="shape"/>
</filter>
</defs>
</svg>
