<svg width="202" height="46" viewBox="0 0 202 46" fill="none" xmlns="http://www.w3.org/2000/svg">
<g filter="url(#filter0_d_1_430)">
<rect x="2" y="1" width="198" height="42" rx="6" fill="white"/>
<path d="M90.41 16V15.29H91.49V16H90.41ZM87.71 18.48C87.1833 18.48 86.7067 18.3833 86.28 18.19C85.8533 17.9967 85.5167 17.7267 85.27 17.38C85.0233 17.0333 84.9 16.6367 84.9 16.19C84.9 16.05 84.91 15.8667 84.93 15.64C84.9567 15.4067 84.9867 15.15 85.02 14.87C85.06 14.5833 85.1033 14.2967 85.15 14.01C85.1967 13.7167 85.24 13.44 85.28 13.18L86.05 13.3C85.9767 13.76 85.91 14.1867 85.85 14.58C85.7967 14.9667 85.7533 15.3 85.72 15.58C85.6933 15.8533 85.68 16.0567 85.68 16.19C85.68 16.4967 85.7633 16.7667 85.93 17C86.1033 17.24 86.3433 17.4267 86.65 17.56C86.9567 17.7 87.31 17.77 87.71 17.77C88.11 17.77 88.4533 17.7067 88.74 17.58C89.0267 17.4533 89.2467 17.2767 89.4 17.05C89.5533 16.8233 89.63 16.5567 89.63 16.25V11H90.41V16.25C90.41 16.7167 90.2867 17.1167 90.04 17.45C89.8 17.7833 89.4767 18.0367 89.07 18.21C88.6633 18.39 88.21 18.48 87.71 18.48ZM91.49 16V15.29C91.5767 15.29 91.63 15.3233 91.65 15.39C91.6767 15.45 91.69 15.5333 91.69 15.64C91.69 15.7467 91.6767 15.8333 91.65 15.9C91.63 15.9667 91.5767 16 91.49 16ZM87.28 11V10.1H88.06V11H87.28ZM91.4922 16V15.29H96.9622L96.3822 15.7V13.55C96.3822 13.0833 96.3289 12.7167 96.2222 12.45C96.1155 12.1833 95.9322 11.9933 95.6722 11.88C95.4189 11.7667 95.0722 11.71 94.6322 11.71C94.3522 11.71 94.0722 11.73 93.7922 11.77C93.5189 11.81 93.3055 11.8633 93.1522 11.93L93.6222 11.45C93.5822 11.61 93.5422 11.8133 93.5022 12.06C93.4622 12.3 93.4289 12.56 93.4022 12.84C93.3755 13.12 93.3622 13.4 93.3622 13.68C93.3622 13.9667 93.3755 14.2467 93.4022 14.52C93.4289 14.7933 93.4589 15.03 93.4922 15.23C93.5255 15.43 93.5522 15.57 93.5722 15.65L92.8322 15.86C92.8055 15.7733 92.7722 15.6233 92.7322 15.41C92.6989 15.1967 92.6655 14.94 92.6322 14.64C92.6055 14.34 92.5922 14.02 92.5922 13.68C92.5922 13.3533 92.6055 13.0367 92.6322 12.73C92.6655 12.4167 92.7022 12.1333 92.7422 11.88C92.7889 11.6267 92.8322 11.4233 92.8722 11.27C93.0189 11.21 93.2522 11.15 93.5722 11.09C93.8922 11.03 94.2455 11 94.6322 11C95.1922 11 95.6589 11.0833 96.0322 11.25C96.4122 11.4167 96.6955 11.6867 96.8822 12.06C97.0689 12.4267 97.1622 12.9233 97.1622 13.55V16H91.4922ZM91.4922 16C91.4055 16 91.3522 15.9667 91.3322 15.9C91.3055 15.8333 91.2922 15.7467 91.2922 15.64C91.2922 15.5333 91.3055 15.45 91.3322 15.39C91.3522 15.3233 91.4055 15.29 91.4922 15.29V16ZM106.015 16V15.29H107.095V16H106.015ZM103.315 18.48C102.789 18.48 102.312 18.3833 101.885 18.19C101.459 17.9967 101.122 17.7267 100.875 17.38C100.629 17.0333 100.505 16.6367 100.505 16.19C100.505 16.05 100.515 15.8667 100.535 15.64C100.562 15.4067 100.592 15.15 100.625 14.87C100.665 14.5833 100.709 14.2967 100.755 14.01C100.802 13.7167 100.845 13.44 100.885 13.18L101.655 13.3C101.582 13.76 101.515 14.1867 101.455 14.58C101.402 14.9667 101.359 15.3 101.325 15.58C101.299 15.8533 101.285 16.0567 101.285 16.19C101.285 16.4967 101.369 16.7667 101.535 17C101.709 17.24 101.949 17.4267 102.255 17.56C102.562 17.7 102.915 17.77 103.315 17.77C103.715 17.77 104.059 17.7067 104.345 17.58C104.632 17.4533 104.852 17.2767 105.005 17.05C105.159 16.8233 105.235 16.5567 105.235 16.25V8.83H106.015V16.25C106.015 16.7167 105.892 17.1167 105.645 17.45C105.405 17.7833 105.082 18.0367 104.675 18.21C104.269 18.39 103.815 18.48 103.315 18.48ZM107.095 16V15.29C107.182 15.29 107.235 15.3233 107.255 15.39C107.282 15.45 107.295 15.5333 107.295 15.64C107.295 15.7467 107.282 15.8333 107.255 15.9C107.235 15.9667 107.182 16 107.095 16ZM107.098 16V15.29H108.538L108.178 15.58V11H108.958V16H107.098ZM107.098 16C107.011 16 106.958 15.9667 106.938 15.9C106.911 15.8333 106.898 15.7467 106.898 15.64C106.898 15.5333 106.911 15.45 106.938 15.39C106.958 15.3233 107.011 15.29 107.098 15.29V16ZM107.498 17.8V16.9H108.278V17.8H107.498ZM108.868 17.8V16.9H109.648V17.8H108.868ZM113.844 16V11H114.624V15.58L114.264 15.29H115.704V16H113.844ZM111.684 12.7V11.98H113.844V12.7H111.684ZM109.854 18.21C109.767 18.21 109.677 18.2033 109.584 18.19C109.484 18.1833 109.387 18.1767 109.294 18.17L109.384 17.46C109.477 17.4667 109.564 17.4733 109.644 17.48C109.724 17.4933 109.794 17.5 109.854 17.5C110.167 17.5 110.42 17.38 110.614 17.14C110.807 16.9067 110.904 16.58 110.904 16.16V11H111.684V16.16C111.684 16.5667 111.604 16.9233 111.444 17.23C111.29 17.5433 111.077 17.7833 110.804 17.95C110.53 18.1233 110.214 18.21 109.854 18.21ZM115.704 16V15.29C115.79 15.29 115.844 15.3233 115.864 15.39C115.89 15.45 115.904 15.5333 115.904 15.64C115.904 15.7467 115.89 15.8333 115.864 15.9C115.844 15.9667 115.79 16 115.704 16ZM113.844 10.1V9.2H114.624V10.1H113.844ZM110.904 10.1V9.2H111.684V10.1H110.904ZM115.701 16V15.29H117.141L116.781 15.58V11H117.561V16H115.701ZM115.701 16C115.615 16 115.561 15.9667 115.541 15.9C115.515 15.8333 115.501 15.7467 115.501 15.64C115.501 15.5333 115.515 15.45 115.541 15.39C115.561 15.3233 115.615 15.29 115.701 15.29V16ZM116.101 10.1V9.2H116.881V10.1H116.101ZM117.471 10.1V9.2H118.251V10.1H117.471Z" fill="black"/>
<path d="M59.78 33L62.37 23.354H65.044L67.634 33H66.276L65.646 30.69H61.754L61.124 33H59.78ZM62.02 29.542H65.394L64.05 24.474H63.364L62.02 29.542ZM68.8462 36.052V25.986H70.1482V26.476C70.2882 26.392 70.4702 26.3033 70.6942 26.21C70.9182 26.1073 71.1562 26.0233 71.4082 25.958C71.6602 25.8833 71.9029 25.846 72.1362 25.846C73.0415 25.846 73.6995 26.1353 74.1102 26.714C74.5209 27.2833 74.7262 28.1887 74.7262 29.43C74.7262 30.3353 74.6189 31.0633 74.4042 31.614C74.1989 32.1553 73.8675 32.5473 73.4102 32.79C72.9622 33.0233 72.3789 33.14 71.6602 33.14C71.3802 33.14 71.0955 33.1213 70.8062 33.084C70.5262 33.0467 70.3069 33.014 70.1482 32.986V36.052H68.8462ZM71.5342 32.02C72.0009 32.02 72.3695 31.9313 72.6402 31.754C72.9202 31.5767 73.1162 31.2967 73.2282 30.914C73.3402 30.5313 73.3962 30.032 73.3962 29.416C73.3962 28.52 73.2655 27.8947 73.0042 27.54C72.7429 27.176 72.3742 26.994 71.8982 26.994C71.6929 26.994 71.4782 27.022 71.2542 27.078C71.0395 27.1247 70.8342 27.1853 70.6382 27.26C70.4422 27.3253 70.2789 27.4 70.1482 27.484V31.894C70.2882 31.9127 70.4889 31.9407 70.7502 31.978C71.0209 32.006 71.2822 32.02 71.5342 32.02ZM76.2974 36.052V25.986H77.5994V26.476C77.7394 26.392 77.9214 26.3033 78.1454 26.21C78.3694 26.1073 78.6074 26.0233 78.8594 25.958C79.1114 25.8833 79.354 25.846 79.5874 25.846C80.4927 25.846 81.1507 26.1353 81.5614 26.714C81.972 27.2833 82.1774 28.1887 82.1774 29.43C82.1774 30.3353 82.07 31.0633 81.8554 31.614C81.65 32.1553 81.3187 32.5473 80.8614 32.79C80.4134 33.0233 79.83 33.14 79.1114 33.14C78.8314 33.14 78.5467 33.1213 78.2574 33.084C77.9774 33.0467 77.758 33.014 77.5994 32.986V36.052H76.2974ZM78.9854 32.02C79.452 32.02 79.8207 31.9313 80.0914 31.754C80.3714 31.5767 80.5674 31.2967 80.6794 30.914C80.7914 30.5313 80.8474 30.032 80.8474 29.416C80.8474 28.52 80.7167 27.8947 80.4554 27.54C80.194 27.176 79.8254 26.994 79.3494 26.994C79.144 26.994 78.9294 27.022 78.7054 27.078C78.4907 27.1247 78.2854 27.1853 78.0894 27.26C77.8934 27.3253 77.73 27.4 77.5994 27.484V31.894C77.7394 31.9127 77.94 31.9407 78.2014 31.978C78.472 32.006 78.7334 32.02 78.9854 32.02ZM89.737 33.14C89.4384 33.14 89.093 33.1213 88.701 33.084C88.3184 33.0467 87.9404 33 87.567 32.944C87.1937 32.888 86.867 32.8413 86.587 32.804L86.699 31.712C86.9697 31.74 87.287 31.7773 87.651 31.824C88.0244 31.8613 88.3884 31.894 88.743 31.922C89.0977 31.95 89.401 31.964 89.653 31.964C90.297 31.964 90.773 31.824 91.081 31.544C91.3984 31.264 91.557 30.8253 91.557 30.228C91.557 29.9013 91.4917 29.6447 91.361 29.458C91.2397 29.262 91.0297 29.108 90.731 28.996C90.4324 28.8747 90.031 28.7673 89.527 28.674C88.8364 28.534 88.267 28.366 87.819 28.17C87.371 27.974 87.0397 27.6987 86.825 27.344C86.6104 26.98 86.503 26.49 86.503 25.874C86.503 25.2207 86.629 24.698 86.881 24.306C87.1424 23.914 87.511 23.6293 87.987 23.452C88.4724 23.2747 89.037 23.186 89.681 23.186C89.9704 23.186 90.297 23.2047 90.661 23.242C91.0344 23.27 91.3984 23.3073 91.753 23.354C92.117 23.4007 92.4297 23.4473 92.691 23.494L92.593 24.6C92.3224 24.5627 92.005 24.53 91.641 24.502C91.2864 24.4647 90.941 24.432 90.605 24.404C90.269 24.376 89.9984 24.362 89.793 24.362C89.149 24.362 88.6637 24.4787 88.337 24.712C88.0197 24.936 87.861 25.2907 87.861 25.776C87.861 26.1493 87.931 26.434 88.071 26.63C88.211 26.826 88.4444 26.98 88.771 27.092C89.0977 27.204 89.527 27.3253 90.059 27.456C90.563 27.568 90.9924 27.6893 91.347 27.82C91.711 27.9507 92.0097 28.114 92.243 28.31C92.4764 28.506 92.6444 28.7487 92.747 29.038C92.859 29.3273 92.915 29.6913 92.915 30.13C92.915 30.8487 92.7844 31.4273 92.523 31.866C92.271 32.3047 91.907 32.6267 91.431 32.832C90.955 33.0373 90.3904 33.14 89.737 33.14ZM96.8056 33.154C96.311 33.154 95.9143 33.0793 95.6156 32.93C95.3263 32.7807 95.1163 32.524 94.9856 32.16C94.8643 31.7867 94.8036 31.264 94.8036 30.592V27.092H93.8516V25.986H94.8036V23.928H96.0916V25.986H98.1776V27.092H96.0916V30.228C96.0916 30.6853 96.1103 31.0447 96.1476 31.306C96.1943 31.558 96.283 31.7353 96.4136 31.838C96.5443 31.9407 96.7496 31.992 97.0296 31.992C97.123 31.992 97.2396 31.992 97.3796 31.992C97.5196 31.9827 97.6643 31.9733 97.8136 31.964C97.963 31.9453 98.0936 31.9313 98.2056 31.922L98.2756 32.986C98.061 33.0233 97.809 33.0607 97.5196 33.098C97.2303 33.1353 96.9923 33.154 96.8056 33.154ZM102.175 33.14C101.391 33.14 100.775 33.0093 100.327 32.748C99.8792 32.4773 99.5618 32.0667 99.3752 31.516C99.1885 30.9653 99.0952 30.2653 99.0952 29.416C99.0952 28.604 99.1932 27.9367 99.3892 27.414C99.5945 26.8913 99.9212 26.4993 100.369 26.238C100.827 25.9767 101.429 25.846 102.175 25.846C102.931 25.846 103.533 25.9767 103.981 26.238C104.429 26.4993 104.751 26.8913 104.947 27.414C105.153 27.9367 105.255 28.604 105.255 29.416C105.255 30.2653 105.162 30.9653 104.975 31.516C104.798 32.0667 104.485 32.4773 104.037 32.748C103.589 33.0093 102.969 33.14 102.175 33.14ZM102.175 32.034C102.67 32.034 103.043 31.9453 103.295 31.768C103.547 31.5907 103.715 31.3107 103.799 30.928C103.883 30.536 103.925 30.032 103.925 29.416C103.925 28.8093 103.874 28.3287 103.771 27.974C103.669 27.61 103.491 27.3487 103.239 27.19C102.987 27.0313 102.633 26.952 102.175 26.952C101.727 26.952 101.373 27.0313 101.111 27.19C100.859 27.3487 100.682 27.61 100.579 27.974C100.477 28.3287 100.425 28.8093 100.425 29.416C100.425 30.032 100.467 30.536 100.551 30.928C100.635 31.3107 100.799 31.5907 101.041 31.768C101.293 31.9453 101.671 32.034 102.175 32.034ZM106.854 33V25.986H108.156V26.896C108.324 26.7747 108.539 26.644 108.8 26.504C109.061 26.364 109.346 26.2333 109.654 26.112C109.971 25.9813 110.284 25.888 110.592 25.832V27.134C110.293 27.19 109.985 27.2693 109.668 27.372C109.36 27.4747 109.071 27.5867 108.8 27.708C108.539 27.82 108.324 27.9227 108.156 28.016V33H106.854ZM114.311 33.14C113.592 33.14 113.023 33.0093 112.603 32.748C112.192 32.4773 111.894 32.076 111.707 31.544C111.52 31.012 111.427 30.3447 111.427 29.542C111.427 28.6647 111.548 27.9553 111.791 27.414C112.043 26.8727 112.393 26.476 112.841 26.224C113.289 25.972 113.826 25.846 114.451 25.846C115.412 25.846 116.136 26.1073 116.621 26.63C117.116 27.1433 117.363 27.974 117.363 29.122L117.293 30.004H112.757C112.766 30.676 112.892 31.1847 113.135 31.53C113.378 31.866 113.816 32.034 114.451 32.034C114.722 32.034 115.016 32.0293 115.333 32.02C115.66 32.0013 115.982 31.9827 116.299 31.964C116.616 31.9453 116.887 31.9267 117.111 31.908L117.139 32.888C116.906 32.9253 116.626 32.9627 116.299 33C115.972 33.0467 115.632 33.0793 115.277 33.098C114.932 33.126 114.61 33.14 114.311 33.14ZM112.757 29.038H116.061C116.061 28.2447 115.93 27.6893 115.669 27.372C115.417 27.0547 115.011 26.896 114.451 26.896C113.9 26.896 113.48 27.0593 113.191 27.386C112.902 27.7127 112.757 28.2633 112.757 29.038Z" fill="black"/>
<path d="M139.864 22.5088C139.841 20.4874 141.898 19.504 141.992 19.4582C140.827 18.0766 139.022 17.8878 138.387 17.8728C136.871 17.7429 135.4 18.6109 134.628 18.6109C133.84 18.6109 132.651 17.8853 131.369 17.9066C129.719 17.9273 128.176 18.7044 127.33 19.911C125.583 22.3714 126.886 25.987 128.559 27.9758C129.396 28.9504 130.374 30.0373 131.655 29.999C132.907 29.9576 133.375 29.3499 134.887 29.3499C136.385 29.3499 136.824 29.999 138.13 29.9746C139.474 29.9576 140.321 28.9962 141.129 28.0134C142.096 26.8977 142.485 25.7976 142.5 25.7412C142.469 25.7324 139.89 24.9309 139.864 22.5088ZM137.397 16.5645C138.071 15.879 138.532 14.9464 138.404 14C137.429 14.0351 136.209 14.5488 135.507 15.2192C134.885 15.81 134.33 16.7783 134.474 17.689C135.569 17.7555 136.694 17.2393 137.397 16.5645Z" fill="black"/>
<rect x="2.5" y="1.5" width="197" height="41" rx="5.5" stroke="#E5E7EB"/>
</g>
<defs>
<filter id="filter0_d_1_430" x="0" y="0" width="202" height="46" filterUnits="userSpaceOnUse" color-interpolation-filters="sRGB">
<feFlood flood-opacity="0" result="BackgroundImageFix"/>
<feColorMatrix in="SourceAlpha" type="matrix" values="0 0 0 0 0 0 0 0 0 0 0 0 0 0 0 0 0 0 127 0" result="hardAlpha"/>
<feOffset dy="1"/>
<feGaussianBlur stdDeviation="1"/>
<feColorMatrix type="matrix" values="0 0 0 0 0 0 0 0 0 0 0 0 0 0 0 0 0 0 0.05 0"/>
<feBlend mode="normal" in2="BackgroundImageFix" result="effect1_dropShadow_1_430"/>
<feBlend mode="normal" in="SourceGraphic" in2="effect1_dropShadow_1_430" result="shape"/>
</filter>
</defs>
</svg>
