<svg xmlns="http://www.w3.org/2000/svg" viewBox="0 0 100 100" preserveAspectRatio="xMidYMid" width="100%" height="100%" style="shape-rendering: auto; display: block; background: transparent;" xmlns:xlink="http://www.w3.org/1999/xlink"><g><g transform="rotate(0 50 50)">
  <rect fill="#555454" height="13" width="9" ry="6.5" rx="4.5" y="28.5" x="45.5">
    <animate repeatCount="indefinite" begin="-1.4814814814814816s" dur="1.6666666666666667s" keyTimes="0;1" values="1;0" attributeName="opacity"></animate>
  </rect>
</g><g transform="rotate(40 50 50)">
  <rect fill="#b9b9b9" height="13" width="9" ry="6.5" rx="4.5" y="28.5" x="45.5">
    <animate repeatCount="indefinite" begin="-1.2962962962962965s" dur="1.6666666666666667s" keyTimes="0;1" values="1;0" attributeName="opacity"></animate>
  </rect>
</g><g transform="rotate(80 50 50)">
  <rect fill="#555454" height="13" width="9" ry="6.5" rx="4.5" y="28.5" x="45.5">
    <animate repeatCount="indefinite" begin="-1.1111111111111112s" dur="1.6666666666666667s" keyTimes="0;1" values="1;0" attributeName="opacity"></animate>
  </rect>
</g><g transform="rotate(120 50 50)">
  <rect fill="#b9b9b9" height="13" width="9" ry="6.5" rx="4.5" y="28.5" x="45.5">
    <animate repeatCount="indefinite" begin="-0.925925925925926s" dur="1.6666666666666667s" keyTimes="0;1" values="1;0" attributeName="opacity"></animate>
  </rect>
</g><g transform="rotate(160 50 50)">
  <rect fill="#555454" height="13" width="9" ry="6.5" rx="4.5" y="28.5" x="45.5">
    <animate repeatCount="indefinite" begin="-0.7407407407407408s" dur="1.6666666666666667s" keyTimes="0;1" values="1;0" attributeName="opacity"></animate>
  </rect>
</g><g transform="rotate(200 50 50)">
  <rect fill="#b9b9b9" height="13" width="9" ry="6.5" rx="4.5" y="28.5" x="45.5">
    <animate repeatCount="indefinite" begin="-0.5555555555555556s" dur="1.6666666666666667s" keyTimes="0;1" values="1;0" attributeName="opacity"></animate>
  </rect>
</g><g transform="rotate(240 50 50)">
  <rect fill="#555454" height="13" width="9" ry="6.5" rx="4.5" y="28.5" x="45.5">
    <animate repeatCount="indefinite" begin="-0.3703703703703704s" dur="1.6666666666666667s" keyTimes="0;1" values="1;0" attributeName="opacity"></animate>
  </rect>
</g><g transform="rotate(280 50 50)">
  <rect fill="#b9b9b9" height="13" width="9" ry="6.5" rx="4.5" y="28.5" x="45.5">
    <animate repeatCount="indefinite" begin="-0.1851851851851852s" dur="1.6666666666666667s" keyTimes="0;1" values="1;0" attributeName="opacity"></animate>
  </rect>
</g><g transform="rotate(320 50 50)">
  <rect fill="#555454" height="13" width="9" ry="6.5" rx="4.5" y="28.5" x="45.5">
    <animate repeatCount="indefinite" begin="0s" dur="1.6666666666666667s" keyTimes="0;1" values="1;0" attributeName="opacity"></animate>
  </rect>
</g><g></g></g><!-- [ldio] generated by https://loading.io --></svg>