<svg xmlns="http://www.w3.org/2000/svg" width="156" height="43.057" viewBox="0 0 156 43.057">
  <g id="Page-1" transform="translate(-9.758 -10.205)">
    <g id="شعار-بعد-التعديل" transform="translate(9.758 10.204)">
      <path id="Fill-1" d="M382.634,12.7h0a1.705,1.705,0,1,0,0,2.412,1.705,1.705,0,0,0,0-2.412" transform="translate(-243.787 -7.897)" fill="#1a1919" fill-rule="evenodd"/>
      <path id="Fill-3" d="M318.04,12.7h0a1.705,1.705,0,1,0,0,2.412,1.706,1.706,0,0,0,0-2.412" transform="translate(-202.363 -7.897)" fill="#1a1919" fill-rule="evenodd"/>
      <path id="Fill-5" d="M302.7,12.7h0a1.705,1.705,0,1,0,0,2.412,1.706,1.706,0,0,0,0-2.412" transform="translate(-192.525 -7.897)" fill="#1a1919" fill-rule="evenodd"/>
      <path id="Fill-7" d="M287.78,12.7h0a1.705,1.705,0,1,0,0,2.412,1.706,1.706,0,0,0,0-2.412" transform="translate(-182.958 -7.897)" fill="#1a1919" fill-rule="evenodd"/>
      <path id="Fill-9" d="M33.4,63.278h0a1.705,1.705,0,1,0,0,2.412,1.706,1.706,0,0,0,0-2.412" transform="translate(-19.826 -40.333)" fill="#1a1919" fill-rule="evenodd"/>
      <path id="Fill-11" d="M73.306,63.278h0a1.705,1.705,0,1,0,0,2.412,1.706,1.706,0,0,0,0-2.412" transform="translate(-45.416 -40.333)" fill="#1a1919" fill-rule="evenodd"/>
      <path id="Fill-13" d="M82.859,63.278h0a1.705,1.705,0,1,0,0,2.412,1.706,1.706,0,0,0,0-2.412" transform="translate(-51.542 -40.333)" fill="#1a1919" fill-rule="evenodd"/>
      <path id="Fill-15" d="M94.335,63.278h0a1.705,1.705,0,1,0,0,2.412,1.705,1.705,0,0,0,0-2.412" transform="translate(-58.902 -40.333)" fill="#1a1919" fill-rule="evenodd"/>
      <path id="Fill-17" d="M408.965,30.932a1.485,1.485,0,0,0-1.484,1.483v3.511a.678.678,0,0,0,.677.677h4.318a.678.678,0,0,0,.677-.677V32.415a1.485,1.485,0,0,0-1.484-1.483Zm3.511,8.373h-4.318a3.383,3.383,0,0,1-3.379-3.379V32.415a4.191,4.191,0,0,1,4.186-4.186h2.7a4.191,4.191,0,0,1,4.186,4.186v3.511a3.383,3.383,0,0,1-3.379,3.379Z" transform="translate(-259.855 -18.177)" fill="#1a1919" fill-rule="evenodd"/>
      <path id="Fill-19" d="M370.738,30.932a1.927,1.927,0,0,0-1.926,1.925v.581a3.168,3.168,0,0,0,3.165,3.165h2.506V32.037a1.106,1.106,0,0,0-1.1-1.1Zm6.448,8.373h-5.209a5.874,5.874,0,0,1-5.868-5.868v-.581a4.633,4.633,0,0,1,4.628-4.628h2.64a3.812,3.812,0,0,1,3.808,3.808Z" transform="translate(-235.057 -18.177)" fill="#1a1919" fill-rule="evenodd"/>
      <path id="Fill-21" d="M372.824,22.224H351.291a3.812,3.812,0,0,1-3.808-3.808V2.946a1.352,1.352,0,1,1,2.7,0v15.47a1.106,1.106,0,0,0,1.1,1.106h21.533a1.351,1.351,0,1,1,0,2.7" transform="translate(-223.111 -1.096)" fill="#1a1919" fill-rule="evenodd"/>
      <path id="Fill-23" d="M308.254,44.128h-4.608a1.351,1.351,0,0,1,0-2.7h4.608c2.432,0,5.33-.421,5.33-2.428V29.58a1.352,1.352,0,0,1,2.7,0V39c0,1.916-1.044,5.131-8.034,5.131" transform="translate(-194.133 -18.177)" fill="#1a1919" fill-rule="evenodd"/>
      <path id="Fill-25" d="M305.943,39.305h-5.168V29.581a1.351,1.351,0,0,1,2.7,0V36.6h2.465a.335.335,0,0,0,.335-.335V29.581a1.351,1.351,0,0,1,2.7,0v6.687a3.041,3.041,0,0,1-3.038,3.038" transform="translate(-193.158 -18.177)" fill="#1a1919" fill-rule="evenodd"/>
      <path id="Fill-27" d="M291.118,39.305h-3.124a4.39,4.39,0,0,1-4.385-4.385v-5.34a1.352,1.352,0,0,1,2.7,0v5.34a1.684,1.684,0,0,0,1.682,1.682h3.124a1.351,1.351,0,1,1,0,2.7" transform="translate(-182.149 -18.177)" fill="#1a1919" fill-rule="evenodd"/>
      <path id="Fill-29" d="M201.942,21.62a1.352,1.352,0,0,1-1.352-1.352V1.765a1.352,1.352,0,1,1,2.7,0v18.5a1.352,1.352,0,0,1-1.352,1.352" transform="translate(-128.91 -0.338)" fill="#1a1919" fill-rule="evenodd"/>
      <path id="Fill-31" d="M128.749,21.295H104.393a4.317,4.317,0,0,1-4.312-4.312V11.751a1.351,1.351,0,1,1,2.7,0v5.231a1.611,1.611,0,0,0,1.61,1.61h24.356a1.106,1.106,0,0,0,1.105-1.1V1.556a1.351,1.351,0,0,1,2.7,0V17.487a3.812,3.812,0,0,1-3.808,3.808" transform="translate(-64.453 -0.204)" fill="#1a1919" fill-rule="evenodd"/>
      <path id="Fill-33" d="M89.018,39.522h-.255A4.027,4.027,0,0,1,84.741,35.5V29.979a1.351,1.351,0,1,1,2.7,0V35.5a1.321,1.321,0,0,0,1.32,1.32h.255a1.227,1.227,0,0,0,1.225-1.225v-1.47a1.351,1.351,0,1,1,2.7,0v1.47a3.933,3.933,0,0,1-3.928,3.928" transform="translate(-54.616 -18.432)" fill="#1a1919" fill-rule="evenodd"/>
      <path id="Fill-35" d="M72.105,39.7h-.582a3.952,3.952,0,0,1-3.948-3.948v-5.5a1.351,1.351,0,0,1,2.7,0v5.5A1.247,1.247,0,0,0,71.523,37h.582a1.629,1.629,0,0,0,1.627-1.627V33.656a1.351,1.351,0,1,1,2.7,0V35.37a4.335,4.335,0,0,1-4.33,4.33" transform="translate(-43.608 -18.61)" fill="#1a1919" fill-rule="evenodd"/>
      <path id="Fill-37" d="M22.235,39.575H6.191a5.433,5.433,0,1,1,0-10.865h7.294a1.351,1.351,0,0,1,0,2.7H6.191a2.73,2.73,0,0,0,0,5.46H22.235a2.493,2.493,0,0,0,2.49-2.49v-.254a1.352,1.352,0,0,1,2.7,0v.254a5.2,5.2,0,0,1-5.193,5.193" transform="translate(-0.758 -18.485)" fill="#1a1919" fill-rule="evenodd"/>
      <path id="Fill-39" d="M245.424,50.34H233.382a5.433,5.433,0,1,1,0-10.866h7.293a1.352,1.352,0,0,1,0,2.7h-7.293a2.73,2.73,0,1,0,0,5.46h12.042a2.493,2.493,0,0,0,2.49-2.49V39.268a1.352,1.352,0,1,1,2.7,0v5.879a5.2,5.2,0,0,1-5.193,5.193" transform="translate(-146.455 -24.389)" fill="#1a1919" fill-rule="evenodd"/>
      <path id="Fill-41" d="M136.72,39.534a5.433,5.433,0,1,0,0-10.865h-8.4a1.351,1.351,0,0,0,0,2.7h8.4a2.73,2.73,0,0,1,0,5.46" transform="translate(-81.699 -18.459)" fill="#1a1919" fill-rule="evenodd"/>
      <path id="Fill-43" d="M140.952,99.555a2.981,2.981,0,0,1-1.549.312h-1.749a.171.171,0,0,1-.17-.17V97.384a.171.171,0,0,1,.17-.17h1.7a5.984,5.984,0,0,1,.885.058,2.041,2.041,0,0,1,.663.208,1,1,0,0,1,.41.41,1.328,1.328,0,0,1,.143.657,1.1,1.1,0,0,1-.5,1.008m-3.3-6.4h1.391a2.441,2.441,0,0,1,1.457.332,1.014,1.014,0,0,1,.429.846,1.031,1.031,0,0,1-.449.917,2.715,2.715,0,0,1-1.438.293h-1.391a.17.17,0,0,1-.17-.17V93.324a.171.171,0,0,1,.17-.17m5.528,4.677a2.5,2.5,0,0,0-.338-.7,2.536,2.536,0,0,0-.592-.585,3,3,0,0,0-.872-.41,2.26,2.26,0,0,0,1.054-.9,2.38,2.38,0,0,0,.345-1.217,2.264,2.264,0,0,0-.221-.982,2.188,2.188,0,0,0-.657-.8,3.552,3.552,0,0,0-1.125-.54,5.936,5.936,0,0,0-1.62-.2h-2.55a.9.9,0,0,0-.9.9v8.23a.9.9,0,0,0,.9.9h3.045a5.486,5.486,0,0,0,1.34-.169,3.556,3.556,0,0,0,1.171-.52,2.588,2.588,0,0,0,1.132-2.257,2.448,2.448,0,0,0-.111-.748" transform="translate(-87.301 -58.753)" fill="#1a1919" fill-rule="evenodd"/>
      <path id="Fill-45" d="M192.223,99.555a2.98,2.98,0,0,1-1.548.312h-1.749a.171.171,0,0,1-.17-.17V97.384a.171.171,0,0,1,.17-.17h1.7a5.979,5.979,0,0,1,.885.058,2.041,2.041,0,0,1,.663.208.994.994,0,0,1,.41.41,1.324,1.324,0,0,1,.143.657,1.1,1.1,0,0,1-.5,1.008m-3.3-6.4h1.391a2.441,2.441,0,0,1,1.457.332,1.014,1.014,0,0,1,.429.846,1.031,1.031,0,0,1-.449.917,2.715,2.715,0,0,1-1.438.293h-1.391a.17.17,0,0,1-.17-.17V93.324a.171.171,0,0,1,.17-.17m5.529,4.677a2.509,2.509,0,0,0-.339-.7,2.536,2.536,0,0,0-.592-.585,3,3,0,0,0-.872-.41,2.259,2.259,0,0,0,1.054-.9,2.38,2.38,0,0,0,.345-1.217,2.264,2.264,0,0,0-.221-.982,2.191,2.191,0,0,0-.657-.8,3.554,3.554,0,0,0-1.126-.54,5.933,5.933,0,0,0-1.62-.2h-2.55a.9.9,0,0,0-.9.9v8.23a.9.9,0,0,0,.9.9h3.045a5.491,5.491,0,0,0,1.34-.169,3.557,3.557,0,0,0,1.171-.52,2.589,2.589,0,0,0,1.132-2.257,2.459,2.459,0,0,0-.11-.748" transform="translate(-120.181 -58.753)" fill="#1a1919" fill-rule="evenodd"/>
      <path id="Fill-47" d="M233.1,100.294a2.933,2.933,0,0,1-1.522.307h-1.719a.167.167,0,0,1-.167-.167V98.159a.167.167,0,0,1,.167-.167h1.668a5.889,5.889,0,0,1,.87.057,2.01,2.01,0,0,1,.652.2.98.98,0,0,1,.4.4,1.3,1.3,0,0,1,.141.646,1.08,1.08,0,0,1-.492.991M229.862,94h1.367a2.4,2.4,0,0,1,1.433.326,1,1,0,0,1,.422.831,1.013,1.013,0,0,1-.441.9,2.668,2.668,0,0,1-1.413.288h-1.367a.167.167,0,0,1-.167-.167V94.169a.167.167,0,0,1,.167-.168m5.434,4.6a2.455,2.455,0,0,0-.333-.69,2.484,2.484,0,0,0-.582-.575,2.937,2.937,0,0,0-.857-.4,2.224,2.224,0,0,0,1.036-.882,2.344,2.344,0,0,0,.339-1.2,2.224,2.224,0,0,0-.218-.966,2.153,2.153,0,0,0-.645-.786,3.5,3.5,0,0,0-1.106-.531,5.847,5.847,0,0,0-1.592-.192h-2.507a.884.884,0,0,0-.882.882v8.088a.884.884,0,0,0,.882.882h2.993a5.366,5.366,0,0,0,1.317-.166,3.485,3.485,0,0,0,1.151-.512,2.542,2.542,0,0,0,1.113-2.219,2.41,2.41,0,0,0-.109-.735" transform="translate(-146.455 -59.315)" fill="#1a1919" fill-rule="evenodd"/>
      <path id="Fill-49" d="M385.068,93.26a.88.88,0,0,0-.069-.343.892.892,0,0,0-.32-.388.876.876,0,0,0-.493-.151.861.861,0,0,0-.831.62v7.59l-.006-.019-.633-1.439-2.442-5.576c-.006-.013-.006-.025-.013-.038l-.122-.275a1.584,1.584,0,0,0-.678-.665l-.013-.006a1.546,1.546,0,0,0-.748-.192,1.638,1.638,0,0,0-1.637,1.63v7.341a.884.884,0,0,0,.882.882.872.872,0,0,0,.844-.639V94.014l.006.019.627,1.432,2.442,5.569.179.415a.034.034,0,0,0,.013.026c.006.013.019.019.026.032a1.6,1.6,0,0,0,1.349.722,1.64,1.64,0,0,0,1.637-1.637V93.26Z" transform="translate(-242.081 -59.315)" fill="#1a1919" fill-rule="evenodd"/>
      <path id="Fill-51" d="M419.675,100.618s0,0,0,0v-3.2a.857.857,0,0,0-.6-.825.708.708,0,0,0-.282-.051h-2.5a.843.843,0,0,0-.562.607.623.623,0,0,0-.032.218.9.9,0,0,0,.575.825h1.42a.321.321,0,0,1,.077.013.231.231,0,0,1,.153.185v1.427a.229.229,0,0,1-.138.213,4.439,4.439,0,0,1-.834.253,5.2,5.2,0,0,1-1.042.109,3.913,3.913,0,0,1-1.266-.2,2.947,2.947,0,0,1-1.061-.639,3.147,3.147,0,0,1-.723-1.074,4.426,4.426,0,0,1,0-3.037,3.055,3.055,0,0,1,.723-1.068,2.932,2.932,0,0,1,1.061-.633,3.747,3.747,0,0,1,1.266-.2,5.957,5.957,0,0,1,1.592.2c.083.025.16.045.236.076a3.578,3.578,0,0,1,.62.237.851.851,0,0,0,.633-.294.863.863,0,0,0,.217-.512.309.309,0,0,0,.006-.077.873.873,0,0,0-.144-.484.86.86,0,0,0-.374-.316.606.606,0,0,0-.179-.064,5.9,5.9,0,0,0-.665-.2,8.523,8.523,0,0,0-2.014-.23,5.6,5.6,0,0,0-2.117.384,4.7,4.7,0,0,0-1.611,1.068,4.764,4.764,0,0,0-1.017,1.618,5.9,5.9,0,0,0,0,4.047,4.605,4.605,0,0,0,2.628,2.686,5.725,5.725,0,0,0,2.117.377,9.21,9.21,0,0,0,1-.057,9.32,9.32,0,0,0,1.042-.179,9.159,9.159,0,0,0,.979-.275c.065-.022.128-.047.189-.07a.878.878,0,0,0,.63-.84" transform="translate(-263.675 -58.983)" fill="#1a1919" fill-rule="evenodd"/>
      <path id="Fill-53" d="M296.091,98.81a2.587,2.587,0,0,1-.78,1.036,3.105,3.105,0,0,1-1.234.575,6.624,6.624,0,0,1-1.618.179h-.741a.074.074,0,0,1-.077-.077V94.078a.078.078,0,0,1,.077-.077h.8a6.314,6.314,0,0,1,1.573.185,3.3,3.3,0,0,1,1.215.575,2.682,2.682,0,0,1,.786,1.01,3.554,3.554,0,0,1,.275,1.477,3.908,3.908,0,0,1-.275,1.56m1.695-3.683a4.206,4.206,0,0,0-1.2-1.522,5.23,5.23,0,0,0-1.816-.921,8.072,8.072,0,0,0-2.276-.307h-1.72a.878.878,0,0,0-.876.882v8.089a.882.882,0,0,0,.876.882h1.8a7.358,7.358,0,0,0,2.276-.333,5.008,5.008,0,0,0,1.784-.966,4.315,4.315,0,0,0,1.164-1.566,5.066,5.066,0,0,0,.422-2.117,4.941,4.941,0,0,0-.428-2.123" transform="translate(-186.18 -59.314)" fill="#1a1919" fill-rule="evenodd"/>
      <path id="Fill-55" d="M330.5,98.81a2.587,2.587,0,0,1-.78,1.036,3.105,3.105,0,0,1-1.234.575,6.624,6.624,0,0,1-1.618.179h-.741a.074.074,0,0,1-.077-.077V94.078a.078.078,0,0,1,.077-.077h.8a6.314,6.314,0,0,1,1.573.185,3.3,3.3,0,0,1,1.215.575,2.686,2.686,0,0,1,.786,1.01,3.555,3.555,0,0,1,.275,1.477,3.909,3.909,0,0,1-.275,1.56m1.695-3.683a4.206,4.206,0,0,0-1.2-1.522,5.229,5.229,0,0,0-1.816-.921,8.072,8.072,0,0,0-2.276-.307h-1.72a.879.879,0,0,0-.876.882v8.089a.883.883,0,0,0,.876.882h1.8a7.36,7.36,0,0,0,2.276-.333,5.008,5.008,0,0,0,1.784-.966,4.315,4.315,0,0,0,1.164-1.566,5.065,5.065,0,0,0,.422-2.117,4.941,4.941,0,0,0-.428-2.123" transform="translate(-208.244 -59.314)" fill="#1a1919" fill-rule="evenodd"/>
      <path id="Fill-57" d="M265.749,100.6h-3.435a.312.312,0,0,1-.312-.312V98.309a.312.312,0,0,1,.312-.312h2.981a.825.825,0,1,0,0-1.65h-2.981a.312.312,0,0,1-.312-.312V94.313a.312.312,0,0,1,.312-.312h3.352a.172.172,0,0,0,.057.006.175.175,0,0,0,.057-.006.811.811,0,0,0,.761-.806.82.82,0,0,0-.818-.818h-4.591a.884.884,0,0,0-.882.882v8.088l0,0a.88.88,0,0,0,.878.878l0,0h4.617a.815.815,0,1,0,0-1.63" transform="translate(-167.169 -59.314)" fill="#1a1919" fill-rule="evenodd"/>
      <path id="Fill-59" d="M170.349,92.458a.27.27,0,0,0,0-.117.892.892,0,0,0-.891-.839.88.88,0,0,0-.611.244.885.885,0,0,0-.274.6.27.27,0,0,0,0,.117h0v8.08a.841.841,0,0,0-.009.09.9.9,0,0,0,.891.9l0,0,0,0a.9.9,0,0,0,.895-.9c0-.022-.005-.042-.006-.064Z" transform="translate(-108.371 -58.753)" fill="#1a1919" fill-rule="evenodd"/>
      <path id="Fill-61" d="M360.72,93.317a.166.166,0,0,0,.007-.057.168.168,0,0,0-.007-.058.876.876,0,0,0-.876-.825.87.87,0,0,0-.87.825.176.176,0,0,0-.006.058.174.174,0,0,0,.006.057h0v7.942c0,.03-.009.058-.009.089a.88.88,0,0,0,.876.88l0,0,0,0a.88.88,0,0,0,.88-.88c0-.022,0-.042-.006-.063Z" transform="translate(-230.475 -59.315)" fill="#1a1919" fill-rule="evenodd"/>
      <path id="Fill-63" d="M72.762,91.5a.936.936,0,0,0-.868.957v2.818a.264.264,0,0,1-.264.264H67.351a.264.264,0,0,1-.264-.264V92.523a.6.6,0,0,0,0-.247A.9.9,0,0,0,65.3,92.4v8.229a.9.9,0,0,0,1.783.124.6.6,0,0,0,0-.247V97.484a.264.264,0,0,1,.264-.264H71.63a.264.264,0,0,1,.264.264v3.084a.936.936,0,0,0,.868.957.9.9,0,0,0,.921-.9V92.4a.9.9,0,0,0-.921-.9" transform="translate(-42.151 -58.753)" fill="#1a1919" fill-rule="evenodd"/>
      <path id="Fill-65" d="M6.47,97.493H3.881a.131.131,0,0,1-.123-.176l.976-2.752.358-.989c.011-.023.052-.085.085-.085s.076.066.085.085l.358.989.976,2.752a.131.131,0,0,1-.124.176m3.11,2.979v-.013l-.078-.2L6.665,92.6a1.207,1.207,0,0,0-.052-.143,1.57,1.57,0,0,0-2.817-.15c0,.007,0,.013-.006.013l-.156.423v.013L.9,100.18l-.124.319a.982.982,0,0,0-.013.143.885.885,0,0,0,.885.885.871.871,0,0,0,.787-.488l.078-.215v-.006l.514-1.425a.336.336,0,0,1,.319-.228H7.01a.339.339,0,0,1,.319.221l.585,1.607a.878.878,0,0,0,1.685-.345.817.817,0,0,0-.02-.176" transform="translate(-0.758 -58.753)" fill="#1a1919" fill-rule="evenodd"/>
      <path id="Fill-67" d="M105.393,97.493H102.8a.131.131,0,0,1-.123-.176l.976-2.752.358-.989c.01-.023.052-.085.085-.085s.076.066.084.085l.358.989.976,2.752a.131.131,0,0,1-.123.176m2.686,3.9a.914.914,0,0,0,.086-.057.849.849,0,0,0,.169-.169.985.985,0,0,0,.06-.089.817.817,0,0,0,.075-.164.879.879,0,0,0,.046-.228c0-.014.008-.026.008-.04s0-.013,0-.019h0a.889.889,0,0,0-.124-.448L105.588,92.6a1.268,1.268,0,0,0-.052-.143,1.57,1.57,0,0,0-2.817-.15c0,.007,0,.013-.006.013l-.156.423v.013L99.84,100.12a.891.891,0,0,0-.159.508s0,0,0,.007,0,0,0,.006a.885.885,0,0,0,.884.885c.013,0,.024,0,.037-.005a.863.863,0,0,0,.192-.027l.044-.014a.891.891,0,0,0,.624-.749l.483-1.339a.336.336,0,0,1,.319-.228h3.669a.339.339,0,0,1,.319.221l.486,1.334a.893.893,0,0,0,.887.8h0l.018,0c.016,0,.03-.008.046-.009a.9.9,0,0,0,.219-.044.858.858,0,0,0,.17-.077" transform="translate(-64.197 -58.753)" fill="#1a1919" fill-rule="evenodd"/>
      <path id="Fill-69" d="M42.352,99.867H39.1a.534.534,0,0,1-.534-.533V92.4a.894.894,0,1,0-1.789,0v8.229a.9.9,0,0,0,.9.9h4.677a.83.83,0,0,0,0-1.659" transform="translate(-23.856 -58.753)" fill="#1a1919" fill-rule="evenodd"/>
    </g>
  </g>
</svg>
