<svg width="96" height="36" viewBox="0 0 96 36" fill="none" xmlns="http://www.w3.org/2000/svg">
<rect width="96" height="36" fill="#F5F5F5"/>
<g id="Web_desktop" clip-path="url(#clip0_0_1)">
<rect width="1567" height="4957" transform="translate(-739 -4623)" fill="#F9FAFB"/>
<g id="Footer">
<rect id="Rectangle 1" x="-739" y="-91" width="1567" height="444" fill="#E5E7EB"/>
<g id="Frame 1042">
<g id="Frame 1043">
<g id="Links and newsletter">
<g id="Frame 1040">
<g id="nadav-logo 2" clip-path="url(#clip1_0_1)">
<g id="Layer 2">
<g id="Layer 1">
<path id="Path 1" d="M22.8801 0.00878906H17.0596V13.9245L6.91676 0.00878906H0.843384V21.5731H6.66393V7.76588L16.7678 21.5731H18.3643L22.8801 10.346V0.00878906Z" fill="black"/>
<path id="Path 2" d="M28.0974 0.00878906L23.8149 10.4552L23.1907 12.0173L19.2983 21.5731H25.6058L26.7935 17.8125H36.2933L37.5005 21.5731H39.9726V11.5447L35.3585 0.00878906H28.0974ZM28.0974 14.0884L31.6012 3.29674L35.1439 14.0884H28.0974Z" fill="black"/>
<path id="Path 3" d="M59.7122 3.02454C58.8783 2.05225 57.8021 1.2852 56.5776 0.790338C54.9438 0.213997 53.2031 -0.0516737 51.4577 0.00894799H40.9458V21.5733H51.4577C52.2479 21.5742 53.0365 21.5074 53.8136 21.3737L60.6462 4.42347C60.3794 3.93207 60.066 3.4639 59.7098 3.02454H59.7122ZM55.1956 15.033C54.8175 15.8915 54.1285 16.5987 53.2486 17.0313C52.091 17.4781 50.8389 17.6707 49.5888 17.5942H47.2143V3.98726H49.7254C50.5689 3.90251 51.422 3.99027 52.2255 4.24443C53.0289 4.4986 53.7634 4.91307 54.3778 5.45901C55.5301 7.06053 56.0338 8.99255 55.7988 10.9091C55.8749 12.3068 55.6703 13.7055 55.1956 15.033Z" fill="black"/>
<path id="Path 4" d="M63.4296 0.00878906L61.6582 4.3869L61.3461 5.16829L54.8646 21.2461L54.7476 21.5731H61.055L62.2427 17.8125H71.7231L72.8717 21.5731H78.9264L70.2841 0.00878906H63.4296ZM63.4296 14.0884L67.0317 3.29674L70.5744 14.0884H63.4296Z" fill="black"/>
<path id="Path 5" d="M89.5742 0.00878906L83.6951 17.7776L77.738 0.00878906H71.2557L79.9768 21.5731H87.2574L95.8426 0.00878906H89.5742Z" fill="black"/>
<path id="Path 6" d="M15.1711 28.0225H16.0295V31.3468H20.7194V28.0225H21.5777V35.7999H20.7194V32.0554H16.028V35.7999H15.1711V28.0225Z" fill="black"/>
<path id="Path 7" d="M28.6226 32.9817C28.6688 33.349 28.6323 33.7212 28.5152 34.0745C28.3982 34.4278 28.2032 34.7543 27.943 35.0331C27.6827 35.312 27.3628 35.5369 27.0039 35.6936C26.6449 35.8502 26.2548 35.935 25.8587 35.9427C25.469 35.9305 25.0864 35.8425 24.7352 35.6845C24.384 35.5264 24.072 35.3017 23.8192 35.0248C23.5663 34.7478 23.3782 34.4247 23.2667 34.0761C23.1553 33.7274 23.123 33.3609 23.172 32.9999C23.1256 32.6335 23.1622 32.262 23.2795 31.9097C23.3967 31.5573 23.592 31.2318 23.8527 30.9544C24.1133 30.677 24.4335 30.4537 24.7925 30.2992C25.1516 30.1446 25.5414 30.0621 25.9367 30.0571C26.3255 30.0668 26.7078 30.1525 27.0589 30.3085C27.4101 30.4646 27.7223 30.6875 27.9754 30.9631C28.2285 31.2386 28.417 31.5606 28.5286 31.9083C28.6402 32.256 28.6717 32.6217 28.6226 32.9817ZM24.0093 32.9817C24.0093 34.2714 24.7295 35.2705 25.9562 35.2705C27.1829 35.2705 27.9032 34.3238 27.9032 32.9817C27.9032 31.6396 27.2219 30.6929 25.9562 30.6929C24.6905 30.6929 24.0093 31.692 24.0093 32.9999V32.9817Z" fill="black"/>
<path id="Path 8" d="M30.0444 31.6379V30.2026H30.8248V31.1289C30.9803 30.807 31.2328 30.5343 31.5515 30.344C31.8701 30.1537 32.2412 30.0539 32.6196 30.0569C32.9891 30.0357 33.3558 30.1293 33.6622 30.3233C33.9686 30.5173 34.1974 30.8006 34.3129 31.1289C34.4884 30.7913 34.7668 30.5095 35.1131 30.3188C35.4594 30.1281 35.8583 30.037 36.2598 30.0569C37.2134 30.0569 38.2068 30.5834 38.2068 32.1098V35.7429H37.403V32.1098C37.403 31.4194 37.1307 30.6533 36.0991 30.6533C35.0675 30.6533 34.5384 31.4347 34.5384 32.4703V35.7946H33.7581V32.1644C33.7581 31.4012 33.5052 30.6927 32.4728 30.6927C31.4405 30.6927 30.8763 31.5469 30.8763 32.6545V35.7429H30.0444V31.6379Z" fill="black"/>
<path id="Path 9" d="M40.4011 33.1091C40.4011 34.4199 41.1214 35.2895 42.2115 35.2895C42.5572 35.318 42.9031 35.2366 43.1929 35.0586C43.4828 34.8805 43.6996 34.6161 43.8081 34.3085H44.6259C44.4797 34.8021 44.1563 35.2337 43.7099 35.5314C43.2634 35.829 42.7209 35.9744 42.1733 35.9434C40.3239 35.9434 39.5841 34.4869 39.5841 33.0545C39.5841 31.6221 40.4604 30.0571 42.2513 30.0571C42.6092 30.0568 42.9631 30.1279 43.2891 30.2656C43.6152 30.4034 43.906 30.6045 44.1419 30.8557C44.3778 31.1068 44.5535 31.4022 44.6572 31.7219C44.7609 32.0416 44.7901 32.3782 44.7429 32.7093V33.1638L40.4011 33.1091ZM43.9243 32.5462C43.9243 31.5107 43.3407 30.7293 42.231 30.7293C41.1214 30.7293 40.5572 31.4925 40.4362 32.5462H43.9243Z" fill="black"/>
<path id="Path 10" d="M51.0886 28.731H48.3434V28.0225H54.7094V28.731H51.9642V35.7948H51.0886V28.731Z" fill="black"/>
<path id="Path 11" d="M54.8452 33.1089C54.8452 34.4197 55.5655 35.2892 56.6556 35.2892C57.0013 35.3178 57.3471 35.2364 57.637 35.0583C57.9269 34.8803 58.1437 34.6159 58.2522 34.3083H59.07C58.9245 34.7986 58.604 35.2279 58.1616 35.5252C57.7192 35.8225 57.1813 35.9699 56.6369 35.9432C54.6899 35.9432 54.0282 34.4867 54.0282 33.0543C54.0282 31.6219 54.9045 30.0569 56.6954 30.0569C57.0573 30.0517 57.4161 30.1191 57.7477 30.2543C58.0793 30.3896 58.376 30.5897 58.6177 30.841C58.8594 31.0924 59.0405 31.3892 59.1488 31.7115C59.2571 32.0338 59.2901 32.374 59.2455 32.7091C59.2557 32.8604 59.2557 33.0122 59.2455 33.1635L54.8452 33.1089ZM58.3684 32.546C58.3684 31.5105 57.7847 30.7291 56.6751 30.7291C55.5655 30.7291 55.0013 31.4923 54.8803 32.546H58.3684Z" fill="black"/>
<path id="Path 12" d="M60.7828 30.2026L62.3434 32.4194L63.9821 30.2026H64.878L62.8148 32.9095L64.8905 35.7954H63.9541C63.1558 34.6507 62.5916 33.8336 62.3153 33.4702C62.1015 33.779 61.5951 34.5422 60.6993 35.7954H59.7902L61.8729 32.9794L59.9267 30.2026H60.7828Z" fill="black"/>
<path id="Path 13" d="M65.4155 30.2026H66.4862V28.4949H67.2844V30.2026H68.6664V30.8929H67.2844V34.3811C67.2844 34.9637 67.4405 35.2892 68.0047 35.2892C68.1918 35.3148 68.3818 35.3148 68.5689 35.2892V35.8886C68.3062 35.9733 68.0286 36.0104 67.7511 35.9978C66.9138 35.9978 66.4854 35.598 66.4854 34.6717V30.8929H65.4155V30.2026Z" fill="black"/>
<path id="Path 14" d="M69.8346 27.6042H70.6329V28.749H69.8346V27.6042ZM69.8346 30.2018H70.6329V35.7976H69.8346V30.2018Z" fill="black"/>
<path id="Path 15" d="M72.5214 35.7976V27.6042H73.3196V35.7976H72.5214Z" fill="black"/>
<path id="Path 16" d="M75.5585 33.1091C75.5585 34.42 76.2788 35.2895 77.3689 35.2895C77.7146 35.318 78.0605 35.2366 78.3503 35.0586C78.6402 34.8805 78.857 34.6162 78.9655 34.3085H79.7833C79.6377 34.7994 79.3168 35.229 78.8737 35.5264C78.4306 35.8237 77.892 35.9708 77.3471 35.9434C75.4001 35.9434 74.7384 34.4869 74.7384 33.0545C74.7384 31.6221 75.6147 30.0571 77.4056 30.0571C77.7647 30.0564 78.1197 30.1271 78.4473 30.2643C78.7749 30.4016 79.0674 30.6023 79.3054 30.8531C79.5434 31.104 79.7215 31.3992 79.8279 31.7193C79.9342 32.0393 79.9664 32.3768 79.9222 32.7093C79.9323 32.8607 79.9323 33.0124 79.9222 33.1638L75.5585 33.1091ZM79.0818 32.5462C79.0818 31.5107 78.4981 30.7293 77.3884 30.7293C76.2788 30.7293 75.7146 31.4925 75.5937 32.5462H79.0818Z" fill="black"/>
</g>
</g>
</g>
</g>
</g>
</g>
</g>
</g>
</g>
<defs>
<clipPath id="clip0_0_1">
<rect width="1567" height="4957" fill="white" transform="translate(-739 -4623)"/>
</clipPath>
<clipPath id="clip1_0_1">
<rect width="95" height="36" fill="white" transform="translate(0.843384)"/>
</clipPath>
</defs>
</svg>
